<?xml version="1.0" encoding="UTF-8" standalone="no"?>
<!-- Created with Inkscape (http://www.inkscape.org/) -->

<svg
   width="101.33491mm"
   height="82.929253mm"
   viewBox="0 0 101.33491 82.929253"
   version="1.1"
   id="svg5"
   xml:space="preserve"
   inkscape:version="1.2.2 (732a01da63, 2022-12-09)"
   sodipodi:docname="logo.svg"
   xmlns:inkscape="http://www.inkscape.org/namespaces/inkscape"
   xmlns:sodipodi="http://sodipodi.sourceforge.net/DTD/sodipodi-0.dtd"
   xmlns="http://www.w3.org/2000/svg"
   xmlns:svg="http://www.w3.org/2000/svg"><sodipodi:namedview
     id="namedview7"
     pagecolor="#505050"
     bordercolor="#ffffff"
     borderopacity="1"
     inkscape:showpageshadow="0"
     inkscape:pageopacity="0"
     inkscape:pagecheckerboard="1"
     inkscape:deskcolor="#505050"
     inkscape:document-units="mm"
     showgrid="false"
     inkscape:zoom="0.73851712"
     inkscape:cx="466.47531"
     inkscape:cy="32.497554"
     inkscape:window-width="1920"
     inkscape:window-height="1009"
     inkscape:window-x="1912"
     inkscape:window-y="-8"
     inkscape:window-maximized="1"
     inkscape:current-layer="layer1" /><defs
     id="defs2"><clipPath
       id="af2854bcd1"><path
         d="M 44.0625,68 H 228.53906 V 288.06641 H 44.0625 Z m 0,0"
         clip-rule="nonzero"
         id="path182" /></clipPath><clipPath
       id="73136630cc"><path
         d="M 67,98 H 331.3125 V 288 H 67 Z m 0,0"
         clip-rule="nonzero"
         id="path185" /></clipPath></defs><g
     inkscape:label="Layer 1"
     inkscape:groupmode="layer"
     id="layer1"
     transform="translate(57.116187,-140.1747)"><g
       id="g222"
       transform="matrix(0.35277778,0,0,0.35277778,-72.660968,121.48052)"><path
         fill="#ffffff"
         d="m 246.625,101.65234 c 6.55078,11.94141 10.89062,27.15235 5.73047,40.40625 -5.8125,14.88672 -20.96875,21.10157 -35.8711,23.3125 0,36.8086 54.71094,33.45703 65.03125,-7.9375 12.1211,-48.33984 -34.15625,-91.441402 -80.83984,-97.988278 3.52734,1.71875 6.96484,3.597657 10.32422,5.644532 14.32812,8.914062 27.35156,21.839844 35.625,36.562496"
         fill-opacity="1"
         fill-rule="nonzero"
         id="path190" /><path
         fill="#ffffff"
         d="m 283.23437,123.08203 c 3.36329,11.53906 3.60547,23.39453 0.65625,34.92578 -2.45703,9.90235 -7.69921,18.73047 -15.23828,25.11328 57.99219,25.51953 55.53516,-92.675778 -19.82031,-106.417965 15.89453,11.535156 28.99609,27.566405 34.40234,46.378905"
         fill-opacity="1"
         fill-rule="nonzero"
         id="path192" /><path
         fill="#ffffff"
         d="M 175.69141,142.875 C 75.117188,108.85156 84.863281,269.33594 226.80469,263.60937 170.29297,245.20703 115.65625,192.85547 175.69141,142.875"
         fill-opacity="1"
         fill-rule="nonzero"
         id="path194" /><g
         clip-path="url(#af2854bcd1)"
         id="g198"><path
           fill="#ffffff"
           d="m 179.14062,100.75391 c 23.82813,14.80468 35.94922,41.22265 6.14063,63.63671 58.88672,8.01172 50.53125,-45.32031 14.00391,-75.824214 C 100.42578,5.871094 -56.578125,196.29297 133.51953,288.06641 -21.117188,180.66406 94.855469,48.5625 179.14062,100.75391"
           fill-opacity="1"
           fill-rule="nonzero"
           id="path196" /></g><g
         clip-path="url(#73136630cc)"
         id="g202"><path
           fill="#ffffff"
           d="m 184.87109,142.63281 c -9.99609,-42.125 -48.48828,-53.332029 -78.54687,-37.46093 -55.613282,29.44921 -47.257814,94.55078 -2.86719,138.88281 68.05859,68.05468 163.5625,50.55468 227.85547,-13.66016 C 70.125,374.92969 50.054688,67.296875 184.87109,142.62891"
           fill-opacity="1"
           fill-rule="nonzero"
           id="path200" /></g><path
         fill="#ffffff"
         d="m 200.84375,86.683594 c 10.80859,8.996094 20.38672,21.023436 25.71094,34.109376 4.09765,10.22265 6.22656,22.98047 0.41406,33.04687 -2.21484,3.84375 -5.24609,6.70703 -8.76172,8.82813 C 309.85156,146.55859 196.49609,0.0625 109.27344,73.433594 c 8.1914,-3.515625 16.87109,-5.890625 25.79687,-7.035156 24.24219,-2.945313 47.17969,4.664062 65.77344,20.285156"
         fill-opacity="1"
         fill-rule="nonzero"
         id="path204" /></g></g></svg>
