<svg width="1614" height="1080" viewBox="0 0 1614 1080" fill="none" xmlns="http://www.w3.org/2000/svg">
<path fill-rule="evenodd" clip-rule="evenodd" d="M1299.25 -113.577C1358.48 -128.489 1427.8 -160.245 1477.64 -124.943C1527.42 -89.6829 1504.07 -10.0218 1525.89 46.9469C1549.61 108.881 1631.72 158.882 1610.39 221.681C1588.99 284.696 1493.81 275.608 1436.66 309.708C1387.2 339.218 1356.8 409.656 1299.25 407.331C1241.57 405 1210.32 339.923 1169.68 298.92C1136.48 265.412 1111.75 228.793 1084.3 190.426C1041.5 130.596 937.905 80.4249 964.223 11.7284C991.159 -58.5799 1105.51 -22.6325 1176.03 -49.0083C1220.56 -65.6599 1253.16 -101.972 1299.25 -113.577Z" fill="white" fill-opacity="0.06"/>
<path fill-rule="evenodd" clip-rule="evenodd" d="M515.497 65.23C571.16 69.6852 629.588 48.2627 678.63 74.9668C730.666 103.301 756.675 159.88 784.947 211.95C819.869 276.269 871.767 339.477 861.598 411.955C850.878 488.357 804.069 571.291 731.039 596.168C658.098 621.014 592.372 535.138 515.497 529.851C447.76 525.192 373.798 609.959 320.471 567.93C266.385 525.302 329.501 432.342 308.545 366.743C287.78 301.74 197.16 265.757 202.202 197.704C207.224 129.942 269.637 73.7035 332.22 47.2406C390.178 22.7337 452.772 60.2096 515.497 65.23Z" fill="black" fill-opacity="0.11"/>
<path fill-rule="evenodd" clip-rule="evenodd" d="M298.432 671.324C359.806 665.389 394.96 742.296 435.292 788.935C466.552 825.084 478.681 870.297 504.995 910.19C545.558 971.684 645.318 1013.07 630.774 1085.29C616.811 1154.62 516.83 1163.44 449.581 1185.34C400.401 1201.36 350.155 1193.66 298.432 1193.52C246.889 1193.39 190.438 1213.6 147.852 1184.56C105.019 1155.36 108.731 1092.47 83.6691 1047.09C49.7178 985.609 -51.2451 937.323 -24.5628 872.359C3.00765 805.233 117.932 852.012 179.541 813.666C233.343 780.18 235.355 677.424 298.432 671.324Z" fill="#C4C4C4" fill-opacity="0.1"/>
<path fill-rule="evenodd" clip-rule="evenodd" d="M966.719 482.314C1019.75 495.153 1067.56 514.806 1114.75 542.197C1167.95 573.075 1234.78 594.335 1257.9 651.333C1281.38 709.191 1254.86 774.01 1232.42 832.277C1211.07 887.732 1185.16 946.241 1133.23 975.122C1083.48 1002.79 1023.49 984.175 966.719 980.04C914.798 976.257 856.175 986.311 816.952 952.082C778.394 918.433 795.369 854.591 771.25 809.457C738.388 747.962 655.278 713.4 652.181 643.745C648.917 570.361 690.144 488.762 755.496 455.222C820.233 421.996 895.997 465.192 966.719 482.314Z" fill="#C4C4C4" fill-opacity="0.04"/>
<path fill-rule="evenodd" clip-rule="evenodd" d="M208.686 -72.0227C293.18 -94.1878 394.079 -95.2615 458.17 -35.9083C523.344 24.4482 541.934 128.293 517.082 213.575C495.809 286.579 401.709 299.17 345.578 350.467C294.58 397.073 276.357 481.501 208.686 495.411C133.825 510.799 59.6482 470.256 0.955933 421.305C-64.2838 366.894 -143.896 297.253 -129.235 213.575C-114.812 131.254 -0.937035 121.731 62.8943 67.7834C116.354 22.6017 140.982 -54.2621 208.686 -72.0227Z" fill="#C4C4C4" fill-opacity="0.04"/>
</svg>
