<svg width="36" height="29" viewBox="0 0 36 29" fill="none" xmlns="http://www.w3.org/2000/svg">
<path d="M33.9996 28.1997L1.59998 28.1997L2.40465 26.6172L7.43383 24.2435L11.8595 16.5949L15.0782 10.0012L18.0957 6.04505L21.3144 2.08887H26.9471L30.1657 4.19883L31.7751 7.89127L30.1657 12.1112L26.9471 11.5837L25.3377 8.68251L22.9237 11.5837V17.6499L27.5506 24.2435L34.5996 25.8497L33.9996 28.1997Z" fill="#5271FF"/>
<path d="M34.566 28.1992C24.0661 28.1992 20.327 21.2093 20.3166 15.2231C20.3082 10.7603 22.3122 7.25202 24.8789 7.23531C24.8809 7.23531 24.8837 7.23531 24.8861 7.23531C25.2649 7.23531 25.6289 7.43114 25.8977 7.78102C26.1677 8.13352 26.3197 8.61135 26.3197 9.11007C26.3197 10.3075 27.0645 11.2809 27.9801 11.2809C28.8957 11.2809 29.6405 10.307 29.6405 9.11007C29.6405 7.49851 29.2065 3.74847 25.1893 3.74847C18.4726 3.74847 15.8654 9.69965 13.1047 15.9997C10.4763 21.9973 7.75831 28.1992 1.43358 28.1992C0.641993 28.1992 0 27.36 0 26.3249C0 25.2899 0.641993 24.4507 1.43358 24.4507C6.09713 24.4507 8.19151 19.6714 10.6167 14.1364C13.5203 7.51 16.811 0 25.1889 0C30.5905 0 32.5068 4.90779 32.5068 9.11059C32.5068 12.3744 30.4757 15.0304 27.9797 15.0304C26.2221 15.0304 24.6949 13.7134 23.9453 11.7948C23.5101 12.5562 23.1809 13.7902 23.1837 15.2143C23.1913 19.6792 26.1865 24.4502 34.5664 24.4502C35.358 24.4502 36 25.2894 36 26.3244C36 27.3594 35.358 28.1992 34.566 28.1992Z" fill="#5271FF"/>
</svg>
